<svg width="104" height="24" viewBox="0 0 104 24" fill="none" xmlns="http://www.w3.org/2000/svg">
<path d="M6.20435 23.5102H0V0.331798H6.20435V3.36537H6.25171C8.0988 1.13759 10.609 0 13.1665 0C16.1976 0 18.613 1.13759 19.9865 3.64977H20.0812C21.9757 1.23239 24.8647 0 28.18 0C33.153 0 36.3262 2.98618 36.3262 10.0961V23.5102H30.1219V11.5655C30.1219 7.86834 28.9852 5.54576 26.0961 5.54576C23.4913 5.54576 21.36 7.77354 21.36 11.9447V23.5102H15.1557V11.5655C15.1557 7.86834 13.9243 5.54576 11.0826 5.54576C8.28825 5.54576 6.20435 7.77354 6.20435 11.9447V23.5102Z" fill="#23252E"/>
<path fill-rule="evenodd" clip-rule="evenodd" d="M65.7795 12.2449C65.7795 18.7371 60.5048 24 53.9981 24C47.4913 24 42.2166 18.7371 42.2166 12.2449C42.2166 5.75273 47.4913 0.48979 53.9981 0.48979C60.5048 0.48979 65.7795 5.75273 65.7795 12.2449ZM57.9252 12.2449C57.9252 14.4089 56.167 16.1633 53.9981 16.1633C51.8291 16.1633 50.0709 14.4089 50.0709 12.2449C50.0709 10.0808 51.8291 8.32653 53.9981 8.32653C56.167 8.32653 57.9252 10.0808 57.9252 12.2449Z" fill="#23252E"/>
<path d="M75.5975 4.40816C75.5975 6.57221 73.8393 8.32653 71.6704 8.32653C69.5015 8.32653 67.7432 6.57221 67.7432 4.40816C67.7432 2.2441 69.5015 0.48979 71.6704 0.48979C73.8393 0.48979 75.5975 2.2441 75.5975 4.40816Z" fill="#23252E"/>
<path d="M87.6986 23.5102H81.4887V0.331798H87.6986V3.31797H87.7934C89.6422 1.13759 92.2968 0 95.1884 0C100.118 0 103.579 2.65438 103.579 9.76432V23.5102H97.369V11.3285C97.369 6.92035 95.8047 5.54576 92.913 5.54576C89.7844 5.54576 87.6986 7.72614 87.6986 11.8973V23.5102Z" fill="#23252E"/>
</svg>
